<svg id="f_logo_RGB-Blue_1024" xmlns="http://www.w3.org/2000/svg" width="24.819" height="24.819" viewBox="0 0 24.819 24.819">
  <path id="패스_1207" data-name="패스 1207" d="M24.819,12.41A12.41,12.41,0,1,0,10.471,24.669V16H7.32V12.41h3.151V9.676c0-3.11,1.853-4.828,4.687-4.828a19.091,19.091,0,0,1,2.778.242V8.144H16.371a1.794,1.794,0,0,0-2.022,1.939V12.41H17.79L17.24,16H14.349v8.672A12.413,12.413,0,0,0,24.819,12.41Z" fill="#1877f2"/>
  <path id="패스_1208" data-name="패스 1208" d="M311.921,211.149l.55-3.587h-3.442v-2.327a1.794,1.794,0,0,1,2.022-1.939h1.565v-3.054a19.083,19.083,0,0,0-2.778-.242c-2.835,0-4.687,1.718-4.687,4.828v2.734H302v3.587h3.151v8.672a12.544,12.544,0,0,0,3.878,0v-8.672Z" transform="translate(-294.68 -195.152)" fill="#fff"/>
</svg>
